<mxfile host="app.diagrams.net" modified="2022-10-19T08:10:09.588Z" agent="5.0 (Macintosh; Intel Mac OS X 10_15_7) AppleWebKit/537.36 (KHTML, like Gecko) Chrome/105.0.0.0 Safari/537.36" etag="ffEo1z_6oqqtVLNYW5H5" version="16.4.2" type="github">
  <diagram id="1eG9AG9pGkrX4VpbZ0Hb" name="Page-1">
    <mxGraphModel dx="860" dy="569" grid="1" gridSize="10" guides="1" tooltips="1" connect="1" arrows="1" fold="1" page="1" pageScale="1" pageWidth="827" pageHeight="1169" math="0" shadow="0">
      <root>
        <mxCell id="0" />
        <mxCell id="1" parent="0" />
        <mxCell id="6B-4xJ3B8OcZkA_8HQGK-1" value="" style="whiteSpace=wrap;html=1;aspect=fixed;" vertex="1" parent="1">
          <mxGeometry x="260" y="100" width="370" height="370" as="geometry" />
        </mxCell>
        <mxCell id="6B-4xJ3B8OcZkA_8HQGK-2" value="角色" style="ellipse;whiteSpace=wrap;html=1;aspect=fixed;" vertex="1" parent="1">
          <mxGeometry x="350" y="350" width="70" height="70" as="geometry" />
        </mxCell>
        <mxCell id="6B-4xJ3B8OcZkA_8HQGK-4" value="小怪" style="ellipse;whiteSpace=wrap;html=1;aspect=fixed;" vertex="1" parent="1">
          <mxGeometry x="354" y="220" width="50" height="50" as="geometry" />
        </mxCell>
        <mxCell id="6B-4xJ3B8OcZkA_8HQGK-5" value="小怪" style="ellipse;whiteSpace=wrap;html=1;aspect=fixed;" vertex="1" parent="1">
          <mxGeometry x="510" y="190" width="50" height="50" as="geometry" />
        </mxCell>
        <mxCell id="6B-4xJ3B8OcZkA_8HQGK-6" value="小怪" style="ellipse;whiteSpace=wrap;html=1;aspect=fixed;" vertex="1" parent="1">
          <mxGeometry x="520" y="260" width="50" height="50" as="geometry" />
        </mxCell>
        <mxCell id="6B-4xJ3B8OcZkA_8HQGK-10" value="冲刺技能" style="text;html=1;strokeColor=none;fillColor=none;align=center;verticalAlign=middle;whiteSpace=wrap;rounded=0;" vertex="1" parent="1">
          <mxGeometry x="530" y="130" width="70" height="30" as="geometry" />
        </mxCell>
        <mxCell id="6B-4xJ3B8OcZkA_8HQGK-11" value="Boss" style="shape=sumEllipse;perimeter=ellipsePerimeter;whiteSpace=wrap;html=1;backgroundOutline=1;" vertex="1" parent="1">
          <mxGeometry x="414" y="210" width="90" height="90" as="geometry" />
        </mxCell>
        <mxCell id="6B-4xJ3B8OcZkA_8HQGK-9" value="" style="endArrow=classic;html=1;rounded=0;" edge="1" parent="1" target="6B-4xJ3B8OcZkA_8HQGK-10">
          <mxGeometry width="50" height="50" relative="1" as="geometry">
            <mxPoint x="404" y="350" as="sourcePoint" />
            <mxPoint x="564" y="160" as="targetPoint" />
          </mxGeometry>
        </mxCell>
      </root>
    </mxGraphModel>
  </diagram>
</mxfile>
